<svg width="57" height="73" viewBox="0 0 57 73" fill="none" xmlns="http://www.w3.org/2000/svg">
<g clip-path="url(#clip0_7_31)">
<path d="M28.9446 0L50.8114 67.4348H7.07787L28.9446 0Z" fill="black"/>
<rect x="0.5" y="67.011" width="55.6575" height="6.39011" fill="black" stroke="black"/>
<circle cx="28.9446" cy="43.7248" r="25.9812" fill="white" stroke="black"/>
<path d="M26.574 24.138H25.737C25.593 24.438 25.521 24.702 25.521 24.93C25.521 25.152 25.548 25.359 25.602 25.551C25.656 25.743 25.716 25.878 25.782 25.956H26.565C26.727 25.674 26.808 25.356 26.808 25.002C26.808 24.642 26.73 24.354 26.574 24.138ZM26.511 23.094H26.979C27.321 23.268 27.585 23.526 27.771 23.868C27.963 24.204 28.059 24.549 28.059 24.903C28.059 25.749 27.723 26.448 27.051 27H25.323C24.639 26.514 24.297 25.815 24.297 24.903C24.297 24.597 24.342 24.267 24.432 23.913C24.528 23.559 24.624 23.265 24.72 23.031C24.822 22.797 24.96 22.5 25.134 22.14L25.782 20.7H27.033L25.863 23.301C26.085 23.163 26.301 23.094 26.511 23.094ZM31.411 27H29.692C29.29 26.598 28.999 26.124 28.819 25.578C28.645 25.032 28.558 24.486 28.558 23.94C28.558 22.542 28.936 21.462 29.692 20.7H31.411C31.807 21.102 32.095 21.576 32.275 22.122C32.455 22.662 32.545 23.202 32.545 23.742C32.545 25.158 32.167 26.244 31.411 27ZM30.943 21.78H30.169C29.905 22.32 29.773 23.007 29.773 23.841C29.773 24.675 29.902 25.38 30.16 25.956H30.952C31.21 25.296 31.339 24.57 31.339 23.778C31.339 22.986 31.207 22.32 30.943 21.78Z" fill="black"/>
<path d="M6.54807 39.4189L5.09907 43.2889H6.43107V41.6509H7.60107V45.7189H6.43107V44.4139H4.76607C4.24407 44.1439 3.98307 43.7269 3.98307 43.1629C3.98307 42.9049 4.12707 42.4159 4.41507 41.6959L5.31507 39.4189H6.54807ZM10.1818 41.6599H10.8658C11.3158 41.9659 11.5408 42.3559 11.5408 42.8299C11.5408 43.1179 11.4388 43.4389 11.2348 43.7929C11.1748 43.9009 11.0698 44.0689 10.9198 44.2969L9.99282 45.7189H8.59782L10.4248 42.8299L10.3978 42.7489H8.31882V39.4189H11.2708V40.4989H9.51582V41.7769C9.69582 41.6989 9.91782 41.6599 10.1818 41.6599Z" fill="black"/>
<path d="M47.81 46V40.78H47.09V39.7H49.07V46H47.81ZM51.8344 41.941H52.5184C52.9684 42.247 53.1934 42.637 53.1934 43.111C53.1934 43.399 53.0914 43.72 52.8874 44.074C52.8274 44.182 52.7224 44.35 52.5724 44.578L51.6454 46H50.2504L52.0774 43.111L52.0504 43.03H49.9714V39.7H52.9234V40.78H51.1684V42.058C51.3484 41.98 51.5704 41.941 51.8344 41.941Z" fill="black"/>
<path d="M27.07 63.301V63.346C27.892 63.604 28.303 64.165 28.303 65.029C28.303 65.467 28.186 65.86 27.952 66.208C27.724 66.556 27.469 66.82 27.187 67H25.135V65.956H26.683C26.755 65.89 26.836 65.758 26.926 65.56C27.016 65.362 27.061 65.161 27.061 64.957C27.061 64.579 26.926 64.3 26.656 64.12H25.927V63.139L27.016 61.879L26.971 61.78H25.171V60.7H27.34C27.85 60.916 28.105 61.258 28.105 61.726C28.105 62.086 27.94 62.431 27.61 62.761L27.07 63.301ZM31.7606 67H30.0416C29.6396 66.598 29.3486 66.124 29.1686 65.578C28.9946 65.032 28.9076 64.486 28.9076 63.94C28.9076 62.542 29.2856 61.462 30.0416 60.7H31.7606C32.1566 61.102 32.4446 61.576 32.6246 62.122C32.8046 62.662 32.8946 63.202 32.8946 63.742C32.8946 65.158 32.5166 66.244 31.7606 67ZM31.2926 61.78H30.5186C30.2546 62.32 30.1226 63.007 30.1226 63.841C30.1226 64.675 30.2516 65.38 30.5096 65.956H31.3016C31.5596 65.296 31.6886 64.57 31.6886 63.778C31.6886 62.986 31.5566 62.32 31.2926 61.78Z" fill="black"/>
<rect x="28.3287" y="30.7921" width="1.23169" height="13.5485" fill="#CD6F18"/>
<line x1="28.6609" y1="43.967" x2="38.7872" y2="52.9682" stroke="#CD6F18"/>
</g>
<defs>
<clipPath id="clip0_7_31">
<rect width="57" height="73" fill="white"/>
</clipPath>
</defs>
</svg>
